<svg width="15" height="19" viewBox="0 0 15 19" fill="none" xmlns="http://www.w3.org/2000/svg">
<path fill-rule="evenodd" clip-rule="evenodd" d="M3.95345 4.74748C3.68011 5.35605 4.16244 6 4.82958 6H10.1704C10.8376 6 11.3199 5.35605 11.0466 4.74748C10.9316 4.4915 10.8072 4.24769 10.674 4.01764C10.2572 3.29768 9.76235 2.72658 9.21776 2.33695C8.67316 1.94731 8.08947 1.74677 7.5 1.74677C6.91053 1.74677 6.32684 1.94731 5.78224 2.33695C5.23765 2.72658 4.74282 3.29768 4.326 4.01763C4.19281 4.24769 4.06842 4.4915 3.95345 4.74748ZM12.5813 5.86451C12.6003 5.9437 12.6709 6 12.7523 6H14C14.5523 6 15 6.44772 15 7V18C15 18.5523 14.5523 19 14 19H1C0.447715 19 0 18.5523 0 18V7C0 6.44772 0.447715 6 1 6H2.2477C2.32914 6 2.39967 5.9437 2.41866 5.86451V5.86451C2.69506 4.71191 3.10019 3.66464 3.61091 2.78248C4.12164 1.90033 4.72795 1.20056 5.39524 0.723144C6.06253 0.245724 6.77773 0 7.5 0C8.22227 0 8.93747 0.245725 9.60476 0.723145C10.272 1.20056 10.8784 1.90033 11.3891 2.78249C11.8998 3.66464 12.3049 4.71192 12.5813 5.86451V5.86451Z" fill="#222"/>
</svg>
