<svg width="16" height="16" viewBox="0 0 16 16" fill="none" xmlns="http://www.w3.org/2000/svg">
<path fill-rule="evenodd" clip-rule="evenodd" d="M11 6.5C11 8.98528 8.98528 11 6.5 11C4.01472 11 2 8.98528 2 6.5C2 4.01472 4.01472 2 6.5 2C8.98528 2 11 4.01472 11 6.5ZM10.3354 11.7483C9.26035 12.5353 7.93444 13 6.5 13C2.91015 13 0 10.0899 0 6.5C0 2.91015 2.91015 0 6.5 0C10.0899 0 13 2.91015 13 6.5C13 7.91381 12.5486 9.22219 11.7821 10.2889L15.7092 14.2501C16.0969 14.6411 16.0955 15.2719 15.7062 15.6612L15.6674 15.7C15.2756 16.0917 14.6401 16.0904 14.2501 15.697L10.3354 11.7483Z" fill="#8B18FC"/>
</svg>
