<svg width="16" height="16" viewBox="0 0 16 16" fill="none" xmlns="http://www.w3.org/2000/svg">
<path fill-rule="evenodd" clip-rule="evenodd" d="M10.1274 2.41019C9.44827 2.85715 9 3.62623 9 4.5C9 5.88071 10.1193 7 11.5 7C12.3737 7 13.1428 6.55177 13.5898 5.87271C13.7305 6.16879 13.8519 6.47586 13.9522 6.79228C14.1426 7.39233 13.7425 7.99156 13.1337 8.15158L12.8055 8.23783C12.4592 8.32886 12.2178 8.64191 12.2178 8.99999C12.2178 9.35807 12.4592 9.67112 12.8055 9.76215L13.1336 9.84837C13.7424 10.0084 14.1424 10.6076 13.952 11.2076C13.8257 11.6058 13.6661 11.9891 13.4765 12.3544C13.1866 12.9131 12.4802 13.054 11.9366 12.7367L11.644 12.5659C11.3347 12.3854 10.9426 12.4361 10.6894 12.6893C10.4362 12.9425 10.3855 13.3345 10.566 13.6437L10.7369 13.9365C11.0543 14.4801 10.9133 15.1865 10.3546 15.4765C9.98946 15.6661 9.60621 15.8256 9.20817 15.952C8.60799 16.1425 8.00855 15.7423 7.84849 15.1333L7.76219 14.805C7.67117 14.4587 7.35807 14.2172 6.99997 14.2172C6.6419 14.2172 6.32885 14.4586 6.23783 14.8049L6.15149 15.1334C5.99141 15.7425 5.39197 16.1427 4.79175 15.9522C4.39373 15.8259 4.0105 15.6664 3.64534 15.4768C3.08658 15.1869 2.94559 14.4803 3.26296 13.9366L3.43391 13.6438C3.61443 13.3346 3.56376 12.9425 3.31056 12.6893C3.05735 12.4361 2.66528 12.3854 2.35602 12.5659L2.06328 12.7368C1.51961 13.0542 0.813057 12.9131 0.523114 12.3544C0.333582 11.9891 0.174042 11.6058 0.0477552 11.2076C-0.142568 10.6076 0.25748 10.0084 0.866283 9.84841L1.19451 9.76215C1.54082 9.67113 1.78222 9.35806 1.7822 8.99999C1.7822 8.64192 1.54079 8.32886 1.19448 8.23784L0.866399 8.15161C0.257612 7.9916 -0.142395 7.39239 0.0479776 6.7924C0.174317 6.39423 0.333915 6.01086 0.52351 5.64556C0.813451 5.08692 1.51986 4.94593 2.06343 5.26323L2.35605 5.43404C2.6653 5.61455 3.05738 5.56389 3.31059 5.31069C3.56379 5.0575 3.61446 4.66542 3.43393 4.35618L3.26307 4.06349C2.94576 3.51992 3.08671 2.81351 3.64534 2.52353C4.01054 2.33396 4.39379 2.17437 4.79185 2.04802C5.39202 1.85752 5.99145 2.25766 6.15151 2.86665L6.23781 3.19499C6.32884 3.54132 6.64191 3.78274 6.99999 3.78274C7.35808 3.78274 7.67115 3.54132 7.76218 3.19499L7.8485 2.86654C8.00857 2.25753 8.608 1.85735 9.2082 2.0478C9.52448 2.14815 9.83142 2.2695 10.1274 2.41019ZM9.60386 8.99717C9.60386 10.4338 8.4393 11.5983 7.00275 11.5983C5.56619 11.5983 4.40163 10.4338 4.40163 8.99717C4.40163 7.56059 5.56619 6.39601 7.00275 6.39601C8.4393 6.39601 9.60386 7.56059 9.60386 8.99717Z" fill="black"/>
<g class='settings-icon__small-gear'> <path fill-rule="evenodd" clip-rule="evenodd" d="M13.769 1.16663C13.583 1.45148 13.6221 1.82766 13.8626 2.0682L13.8972 2.10279L13.9474 2.15298C14.1866 2.39222 14.5611 2.43035 14.8436 2.24424C15.17 2.02924 15.6143 2.11545 15.782 2.46847C15.8502 2.61185 15.9113 2.7592 15.965 2.91007C16.0962 3.27847 15.8429 3.65374 15.4599 3.73274C15.1282 3.80115 14.8903 4.09319 14.8903 4.43184V4.49999V4.56824C14.8903 4.90685 15.1282 5.19885 15.4598 5.26725C15.8428 5.34625 16.0961 5.7215 15.9649 6.08988C15.9115 6.2398 15.8508 6.38624 15.7831 6.52877C15.6158 6.8815 15.1719 6.96759 14.846 6.7525C14.5641 6.56638 14.1901 6.60427 13.9513 6.84315L13.8972 6.89718L13.8545 6.9399C13.6147 7.17973 13.5761 7.55497 13.7621 7.83859C13.9768 8.16594 13.8904 8.61073 13.5371 8.77926C13.392 8.84846 13.2429 8.91049 13.0901 8.9649C12.7216 9.09616 12.3463 8.8428 12.2672 8.4597C12.1988 8.12798 11.9067 7.88999 11.568 7.88999H11.4999H11.4319C11.0932 7.88999 10.8011 8.128 10.7327 8.45976C10.6536 8.84287 10.2782 9.09626 9.90974 8.96501C9.75866 8.9112 9.61111 8.84995 9.46755 8.78168C9.11449 8.61379 9.02826 8.16943 9.24323 7.84289C9.42934 7.56018 9.39115 7.18561 9.15182 6.94628L9.10273 6.89718L9.06818 6.86264C8.82766 6.62211 8.4515 6.58302 8.16666 6.76895C7.83817 6.98338 7.39269 6.89673 7.22338 6.54287C7.15305 6.39589 7.09008 6.24473 7.03494 6.08985C6.90379 5.72148 7.15709 5.34625 7.54005 5.26726C7.8717 5.19885 8.10962 4.90683 8.10961 4.5682L8.10961 4.49999L8.10961 4.43173C8.10962 4.09315 7.87173 3.80116 7.54012 3.73276C7.15719 3.65377 6.90392 3.27855 7.03509 2.91021C7.08953 2.75735 7.15159 2.60811 7.22082 2.46294C7.38933 2.10962 7.83408 2.02322 8.16142 2.23789C8.44501 2.42388 8.8202 2.38529 9.06001 2.14549L9.10271 2.10279L9.15682 2.04868C9.39569 1.8098 9.43357 1.43585 9.24744 1.15393C9.03235 0.82813 9.11841 0.384255 9.4711 0.216868C9.61357 0.14925 9.75996 0.0885324 9.90982 0.0351454C10.2783 -0.0961204 10.6537 0.15724 10.7327 0.540328C10.8011 0.872041 11.0932 1.11002 11.4319 1.11002H11.5H11.568C11.9067 1.11002 12.1988 0.872005 12.2673 0.540243C12.3463 0.15713 12.7217 -0.0962671 13.0902 0.0349711C13.245 0.0900921 13.396 0.153033 13.5429 0.223318C13.8968 0.392651 13.9834 0.838142 13.769 1.16663ZM11.5018 6.18832C12.4352 6.18832 13.1919 5.43161 13.1919 4.49816C13.1919 3.56471 12.4352 2.808 11.5018 2.808C10.5684 2.808 9.81168 3.56471 9.81168 4.49816C9.81168 5.43161 10.5684 6.18832 11.5018 6.18832Z" fill="black"/></g>
</svg>
