<svg width="16" height="16" viewBox="0 0 16 16" fill="none" xmlns="http://www.w3.org/2000/svg">
<mask id="mask0_27_57" style="mask-type:alpha" maskUnits="userSpaceOnUse" x="2" y="0" width="12" height="16">
<path d="M11.5 5.5H12.5C13.0523 5.5 13.5 5.94772 13.5 6.5V15.5H11.5V5.5Z" fill="#818181"/>
<path d="M8.5 1.5C8.5 0.947715 8.94772 0.5 9.5 0.5V0.5C10.0523 0.5 10.5 0.947715 10.5 1.5V15.5H8.5V1.5Z" fill="#818181"/>
<path d="M5.5 8.5C5.5 7.94772 5.94772 7.5 6.5 7.5V7.5C7.05228 7.5 7.5 7.94772 7.5 8.5V15.5H5.5V8.5Z" fill="#818181"/>
<path d="M2.5 6.5C2.5 5.94772 2.94772 5.5 3.5 5.5H4.5V15.5H2.5V6.5Z" fill="#818181"/>
</mask>
<g mask="url(#mask0_27_57)">
<rect x="-6.5" y="-0.5" width="28" height="17" fill="#444"/>
</g>
</svg>
