<svg width="16" height="16" viewBox="0 0 16 16" fill="none" xmlns="http://www.w3.org/2000/svg">
<mask id="path-1-inside-1_2_87" fill="white">
<path fill-rule="evenodd" clip-rule="evenodd" d="M6.0625 0C5.51022 0 5.0625 0.447715 5.0625 1V1.06667H2.6C2.26863 1.06667 2 1.3353 2 1.66667V3.02667C2 3.35804 2.26863 3.62667 2.6 3.62667H13.65C13.9814 3.62667 14.25 3.35804 14.25 3.02667V1.66667C14.25 1.3353 13.9814 1.06667 13.65 1.06667H11.1875V1C11.1875 0.447715 10.7398 0 10.1875 0H6.0625Z"/>
</mask>
<path d="M5.0625 1.06667V1.58667H5.5825V1.06667H5.0625ZM11.1875 1.06667H10.6675V1.58667H11.1875V1.06667ZM5.5825 1C5.5825 0.734903 5.7974 0.52 6.0625 0.52V-0.52C5.22303 -0.52 4.5425 0.160526 4.5425 1H5.5825ZM5.5825 1.06667V1H4.5425V1.06667H5.5825ZM2.6 1.58667H5.0625V0.546669H2.6V1.58667ZM2.52 1.66667C2.52 1.62249 2.55582 1.58667 2.6 1.58667V0.546669C1.98144 0.546669 1.48 1.04811 1.48 1.66667H2.52ZM2.52 3.02667V1.66667H1.48V3.02667H2.52ZM2.6 3.10667C2.55582 3.10667 2.52 3.07085 2.52 3.02667H1.48C1.48 3.64523 1.98144 4.14667 2.6 4.14667V3.10667ZM13.65 3.10667H2.6V4.14667H13.65V3.10667ZM13.73 3.02667C13.73 3.07085 13.6942 3.10667 13.65 3.10667V4.14667C14.2686 4.14667 14.77 3.64523 14.77 3.02667H13.73ZM13.73 1.66667V3.02667H14.77V1.66667H13.73ZM13.65 1.58667C13.6942 1.58667 13.73 1.62249 13.73 1.66667H14.77C14.77 1.04811 14.2686 0.546669 13.65 0.546669V1.58667ZM11.1875 1.58667H13.65V0.546669H11.1875V1.58667ZM10.6675 1V1.06667H11.7075V1H10.6675ZM10.1875 0.52C10.4526 0.52 10.6675 0.734903 10.6675 1H11.7075C11.7075 0.160527 11.027 -0.52 10.1875 -0.52V0.52ZM6.0625 0.52H10.1875V-0.52H6.0625V0.52Z" fill="white" mask="url(#path-1-inside-1_2_87)"/>
<rect x="5.125" y="6" width="0.4" height="8" rx="0.2" fill="white"/>
<rect x="7.92505" y="6" width="0.4" height="8" rx="0.2" fill="white"/>
<rect x="10.4584" y="6" width="0.4" height="8" rx="0.2" fill="white"/>
<rect x="13.1149" y="15.74" width="9.97989" height="11.2133" rx="0.94" transform="rotate(-180 13.1149 15.74)" stroke="white" stroke-width="0.52"/>
</svg>
