<svg width="16" height="17" viewBox="0 0 16 17" fill="none" xmlns="http://www.w3.org/2000/svg">
<mask id="mask0_1_32" style="mask-type:alpha" maskUnits="userSpaceOnUse" x="0" y="0" width="16" height="17">
<path d="M16 12.5C16 16.9183 12.4183 16 8 16C3.58172 16 0 16.9183 0 12.5C0 8.08172 3.58172 0 8 0C12.4183 0 16 8.08172 16 12.5Z" fill="#D9D9D9"/>
</mask>
<g mask="url(#mask0_1_32)">
  
<circle cx="8" cy="4" r="4" fill="black"/>
<path fill-rule="evenodd" clip-rule="evenodd" d="M4.29196 8.14349C1.34206 8.96807 -1 10.7994 -1 13.5C-1 17.2773 3.58172 20 8 20C12.4183 20 17 17.2773 17 13.5C17 10.7994 14.658 8.96808 11.7081 8.1435C10.7483 8.93734 9.44089 9.42583 8.00001 9.42583C6.55913 9.42583 5.2517 8.93733 4.29196 8.14349Z" fill="rgb(52, 52, 52)"/>
</g>
</svg>
